HIERARCHY
ROOT joint_Root
{
	OFFSET 0.0 0.0 0.0
	CHANNELS 6 Xposition Yposition Zposition Zrotation Xrotation Yrotation 
	JOINT Hips
	{
		OFFSET -0.726466 93.3139 -2.00062
		CHANNELS 6 Xposition Yposition Zposition Zrotation Xrotation Yrotation 
		JOINT Spine
		{
			OFFSET 15.7357 0.0 0.0
			CHANNELS 6 Xposition Yposition Zposition Zrotation Xrotation Yrotation 
			JOINT Chest
			{
				OFFSET 8.98455 -0.406207 0.0
				CHANNELS 6 Xposition Yposition Zposition Zrotation Xrotation Yrotation 
				JOINT Neck
				{
					OFFSET 16.3773 0.0 0.0
					CHANNELS 6 Xposition Yposition Zposition Zrotation Xrotation Yrotation 
					JOINT Head
					{
						OFFSET 6.45672 0.0 0.0
						CHANNELS 6 Xposition Yposition Zposition Zrotation Xrotation Yrotation 
						End Site
						{
							OFFSET 0.0 0.0 0.0
						}
					}
				}
				JOINT Shoulder_L
				{
					OFFSET 12.9942 -0.242716 4.98039
					CHANNELS 6 Xposition Yposition Zposition Zrotation Xrotation Yrotation 
					JOINT UpperArm_L
					{
						OFFSET 5.34809 0.0 0.0
						CHANNELS 6 Xposition Yposition Zposition Zrotation Xrotation Yrotation 
						JOINT LowerArm_L
						{
							OFFSET 24.3286 1.87007e-05 0.0
							CHANNELS 6 Xposition Yposition Zposition Zrotation Xrotation Yrotation 
							JOINT Hand_L
							{
								OFFSET 22.2916 0.0 0.0
								CHANNELS 6 Xposition Yposition Zposition Zrotation Xrotation Yrotation 
								End Site
								{
									OFFSET 0.0 0.0 0.0
								}
							}
						}
					}
				}
				JOINT Shoulder_R
				{
					OFFSET 12.9945 -0.242716 -4.98039
					CHANNELS 6 Xposition Yposition Zposition Zrotation Xrotation Yrotation 
					JOINT UpperArm_R
					{
						OFFSET -5.34813 0.0 0.0
						CHANNELS 6 Xposition Yposition Zposition Zrotation Xrotation Yrotation 
						JOINT LowerArm_R
						{
							OFFSET -24.3289 0.000322201 0.0
							CHANNELS 6 Xposition Yposition Zposition Zrotation Xrotation Yrotation 
							JOINT Hand_R
							{
								OFFSET -22.2915 -0.000108084 0.0
								CHANNELS 6 Xposition Yposition Zposition Zrotation Xrotation Yrotation 
								End Site
								{
									OFFSET 0.0 0.0 0.0
								}
							}
						}
					}
				}
			}
		}
		JOINT UpperLeg_L
		{
			OFFSET -2.19248 -6.46944 0.0
			CHANNELS 6 Xposition Yposition Zposition Zrotation Xrotation Yrotation 
			JOINT LowerLeg_L
			{
				OFFSET 39.0811 0.0 -1.23785e-05
				CHANNELS 6 Xposition Yposition Zposition Zrotation Xrotation Yrotation 
				JOINT Foot_L
				{
					OFFSET 40.9854 0.0 -1.26872e-05
					CHANNELS 6 Xposition Yposition Zposition Zrotation Xrotation Yrotation 
					JOINT Toes_L
					{
						OFFSET 11.7543 0.0 0.0
						CHANNELS 6 Xposition Yposition Zposition Zrotation Xrotation Yrotation 
						End Site
						{
							OFFSET 0.0 0.0 0.0
						}
					}
				}
			}
		}
		JOINT UpperLeg_R
		{
			OFFSET -2.19251 6.46944 0.0
			CHANNELS 6 Xposition Yposition Zposition Zrotation Xrotation Yrotation 
			JOINT LowerLeg_R
			{
				OFFSET -39.0811 -0.00228153 -0.0401928
				CHANNELS 6 Xposition Yposition Zposition Zrotation Xrotation Yrotation 
				JOINT Foot_R
				{
					OFFSET -40.9854 0.0 0.0
					CHANNELS 6 Xposition Yposition Zposition Zrotation Xrotation Yrotation 
					JOINT Toes_R
					{
						OFFSET -11.7543 0.0 0.0
						CHANNELS 6 Xposition Yposition Zposition Zrotation Xrotation Yrotation 
						End Site
						{
							OFFSET 0.0 0.0 0.0
						}
					}
				}
			}
		}
	}
}
MOTION
Frames:	9
Frame Time:	0.0333333
0.000000 0.000000 0.000000 0.000000 0.000000 -0.000000 -0.637627 91.845100 -1.872340 88.134700 -4.417030 5.243520 15.735700 0.000005 -0.000001 75.401600 84.605800 -72.097700 8.984550 -0.406207 -0.000000 2.768170 -2.860530 6.671360 16.377300 -0.000001 -0.000001 6.794410 1.058610 -5.312740 6.456720 -0.000001 -0.000000 1.218900 2.151150 -4.194260 12.994200 -0.242716 4.980390 -83.221000 -12.910100 -61.985000 5.348090 -0.000007 -0.000001 -52.401200 -58.946700 -82.697700 24.328600 0.000019 0.000005 -9.439230 -8.271900 -49.128000 22.291600 -0.000001 0.000005 15.038400 5.651890 -15.198200 12.994500 -0.242716 -4.980390 91.477800 -3.926710 -69.356600 -5.348130 -0.000001 -0.000004 -58.702800 76.563900 7.883130 -24.328900 0.000322 -0.000009 25.870100 2.732390 -84.386400 -22.291500 -0.000108 -0.000004 44.393100 5.676450 -23.664400 -2.192480 -6.469440 -0.000000 -170.186000 -19.501600 -2.590820 39.081100 -0.000007 -0.000012 -0.150428 0.322180 25.028300 40.985400 -0.000006 -0.000013 -5.169220 -1.102540 -65.031500 11.754300 -0.000000 0.000003 -0.000054 -0.000606 -16.601000 -2.192510 6.469440 -0.000001 174.957000 21.508600 177.120000 -39.081100 -0.002282 -0.040193 0.040680 -0.082414 24.389500 -40.985400 0.000008 0.000006 0.841476 4.168070 -64.397800 -11.754300 -0.000006 -0.000006 -0.005833 -0.069306 -19.393600
0.000000 0.000000 0.000000 0.000000 0.000000 -0.000000 -0.626823 91.856100 -1.898240 88.137600 -4.392190 5.178430 15.735700 0.000005 -0.000001 75.448700 84.592300 -72.160900 8.984550 -0.406207 -0.000000 2.796050 -2.857230 6.639880 16.377300 -0.000001 -0.000001 6.748980 1.033090 -5.290230 6.456720 -0.000001 -0.000000 1.180010 2.099510 -4.250620 12.994200 -0.242716 4.980390 -83.229100 -12.873900 -61.947800 5.348090 -0.000007 -0.000001 -52.234100 -58.891300 -82.459700 24.328600 0.000019 0.000005 -9.476240 -8.281430 -49.208500 22.291600 -0.000001 0.000005 14.987800 5.652200 -15.229200 12.994500 -0.242716 -4.980390 91.475900 -3.917520 -69.337500 -5.348130 -0.000001 -0.000004 -58.340600 76.630100 7.496230 -24.328900 0.000322 -0.000009 25.907900 2.737440 -84.385400 -22.291500 -0.000108 -0.000004 44.430100 5.676760 -23.593000 -2.192480 -6.469440 -0.000000 -170.228000 -19.535800 -2.668320 39.081100 -0.000007 -0.000012 -0.147596 0.316793 24.981300 40.985400 -0.000006 -0.000013 -5.142430 -1.068950 -64.979400 11.754300 -0.000000 0.000003 -0.000056 -0.000628 -16.601900 -2.192510 6.469440 -0.000001 174.975000 21.563700 177.048000 -39.081100 -0.002282 -0.040193 0.040633 -0.082452 24.352300 -40.985400 0.000008 0.000006 0.846728 4.197370 -64.333600 -11.754300 -0.000006 -0.000006 -0.005822 -0.069207 -19.389600
0.000000 0.000000 0.000000 0.000000 0.000000 -0.000000 -0.628632 91.860800 -1.939980 88.124200 -4.284440 5.182090 15.735700 0.000005 -0.000001 75.582100 84.558400 -72.308500 8.984550 -0.406207 -0.000000 2.867240 -2.846980 6.612830 16.377300 -0.000001 -0.000001 6.745140 0.983718 -5.272320 6.456720 -0.000001 -0.000000 1.127120 1.964900 -4.210510 12.994200 -0.242716 4.980390 -83.251000 -12.844300 -61.971600 5.348090 -0.000007 -0.000001 -51.855500 -58.739900 -81.998400 24.328600 0.000019 0.000005 -9.574190 -8.329880 -49.341200 22.291600 -0.000001 0.000005 15.003600 5.652540 -15.262600 12.994500 -0.242716 -4.980390 91.457900 -3.850790 -69.244400 -5.348130 -0.000001 -0.000004 -57.724000 76.661700 6.922890 -24.328900 0.000322 -0.000009 25.964900 2.732420 -84.409700 -22.291500 -0.000108 -0.000004 44.292200 5.676610 -23.627900 -2.192480 -6.469440 -0.000000 -170.233000 -19.468900 -2.714370 39.081100 -0.000007 -0.000012 -0.146032 0.313435 24.981300 40.985400 -0.000006 -0.000013 -5.130820 -1.062760 -64.945500 11.754300 -0.000000 0.000003 -0.000047 -0.000533 -16.598300 -2.192510 6.469440 -0.000001 175.001000 21.596300 177.037000 -39.081100 -0.002282 -0.040193 0.040629 -0.082469 24.345800 -40.985400 0.000008 0.000006 0.823170 4.100150 -64.284800 -11.754300 -0.000006 -0.000006 -0.005995 -0.070788 -19.454100
0.000000 0.000000 0.000000 0.000000 0.000000 -0.000000 -0.622706 91.860000 -1.967640 88.120400 -4.234480 5.156150 15.735700 0.000005 -0.000001 75.888500 84.535600 -72.624100 8.984550 -0.406207 -0.000000 2.924080 -2.799670 6.594580 16.377300 -0.000001 -0.000001 6.762970 0.952897 -5.190220 6.456720 -0.000001 -0.000000 1.098080 1.846290 -4.211750 12.994200 -0.242716 4.980390 -83.261400 -12.810200 -61.946600 5.348090 -0.000007 -0.000001 -51.378800 -58.469500 -81.357300 24.328600 0.000019 0.000005 -9.534700 -8.235770 -49.541400 22.291600 -0.000001 0.000005 14.977200 5.652400 -15.248200 12.994500 -0.242716 -4.980390 91.478500 -3.880740 -69.124400 -5.348130 -0.000001 -0.000004 -57.021900 76.799600 6.140330 -24.328900 0.000322 -0.000009 26.044400 2.747840 -84.398000 -22.291500 -0.000108 -0.000004 44.440100 5.676960 -23.547300 -2.192480 -6.469440 -0.000000 -170.260000 -19.411600 -2.804940 39.081100 -0.000007 -0.000012 -0.145560 0.311975 25.012700 40.985400 -0.000006 -0.000013 -5.126540 -1.092510 -64.928000 11.754300 -0.000000 0.000003 -0.000047 -0.000535 -16.598400 -2.192510 6.469440 -0.000001 175.030000 21.577000 176.983000 -39.081100 -0.002282 -0.040193 0.041014 -0.083309 24.348900 -40.985400 0.000008 0.000006 0.786701 4.035250 -64.268200 -11.754300 -0.000006 -0.000006 -0.006073 -0.071496 -19.482900
0.000000 0.000000 0.000000 0.000000 0.000000 -0.000000 -0.628749 91.862100 -1.990220 88.100700 -4.195630 5.196890 15.735700 0.000005 -0.000001 76.333800 84.503000 -73.079400 8.984550 -0.406207 -0.000000 3.005500 -2.729870 6.574580 16.377300 -0.000001 -0.000001 6.803770 0.897865 -5.036310 6.456720 -0.000001 -0.000000 1.108890 1.710960 -4.183950 12.994200 -0.242716 4.980390 -83.268400 -12.797900 -61.949300 5.348090 -0.000007 -0.000001 -50.532400 -58.151100 -80.379700 24.328600 0.000019 0.000005 -9.577560 -8.204740 -49.776500 22.291600 -0.000001 0.000005 14.808600 5.652900 -15.298700 12.994500 -0.242716 -4.980390 91.512400 -3.949310 -69.025400 -5.348130 -0.000001 -0.000004 -56.676100 76.876800 5.729630 -24.328900 0.000322 -0.000009 26.163100 2.764190 -84.394200 -22.291500 -0.000108 -0.000004 44.542800 5.677090 -23.513800 -2.192480 -6.469440 -0.000000 -170.229000 -19.349700 -2.773870 39.081100 -0.000007 -0.000012 -0.147799 0.316803 25.010700 40.985400 -0.000006 -0.000013 -5.122030 -1.064400 -64.921600 11.754300 -0.000000 0.000003 -0.000046 -0.000526 -16.598000 -2.192510 6.469440 -0.000001 175.045000 21.583200 177.031000 -39.081100 -0.002282 -0.040193 0.041650 -0.084779 24.332300 -40.985400 0.000008 0.000006 0.894925 3.979240 -64.278100 -11.754300 -0.000006 -0.000006 -0.005763 -0.068666 -19.367500
0.000000 0.000000 0.000000 0.000000 0.000000 -0.000000 -0.635008 91.860800 -2.025820 88.084700 -4.136060 5.175180 15.735700 0.000005 -0.000001 76.684900 84.477800 -73.447000 8.984550 -0.406207 -0.000000 3.068240 -2.673520 6.541640 16.377300 -0.000001 -0.000001 6.808140 0.811622 -4.862840 6.456720 -0.000001 -0.000000 1.090410 1.583010 -4.157960 12.994200 -0.242716 4.980390 -83.284500 -12.774600 -61.964200 5.348090 -0.000007 -0.000001 -49.281500 -57.898800 -79.096200 24.328600 0.000019 0.000005 -9.509550 -8.083620 -49.988600 22.291600 -0.000001 0.000005 14.821900 5.652760 -15.284700 12.994500 -0.242716 -4.980390 91.530100 -3.971070 -68.907900 -5.348130 -0.000001 -0.000004 -56.007000 76.925600 5.049810 -24.328900 0.000322 -0.000009 26.266200 2.751220 -84.445400 -22.291500 -0.000108 -0.000004 44.496600 5.677220 -23.481900 -2.192480 -6.469440 -0.000000 -170.225000 -19.354200 -2.865030 39.081100 -0.000007 -0.000012 -0.147341 0.315224 25.052400 40.985400 -0.000006 -0.000013 -5.108930 -1.033760 -64.897700 11.754300 -0.000000 0.000003 -0.000047 -0.000536 -16.598400 -2.192510 6.469440 -0.000001 175.081000 21.621200 176.989000 -39.081100 -0.002282 -0.040193 0.041249 -0.083880 24.335400 -40.985400 0.000008 0.000006 0.802366 3.958750 -64.245600 -11.754300 -0.000006 -0.000006 -0.006123 -0.071950 -19.501400
0.000000 0.000000 0.000000 0.000000 0.000000 -0.000000 -0.646897 91.866000 -2.065330 88.076000 -4.062710 5.176850 15.735700 0.000005 -0.000001 76.871600 84.454800 -73.661800 8.984550 -0.406207 -0.000000 3.119600 -2.646320 6.485800 16.377300 -0.000001 -0.000001 6.791400 0.770884 -4.722470 6.456720 -0.000001 -0.000000 1.144080 1.511540 -4.115300 12.994200 -0.242716 4.980390 -83.304700 -12.760900 -62.011300 5.348090 -0.000007 -0.000001 -48.092100 -57.640900 -77.822800 24.328600 0.000019 0.000005 -9.361980 -7.861590 -50.319700 22.291600 -0.000001 0.000005 14.663300 5.652960 -15.304900 12.994500 -0.242716 -4.980390 91.534800 -3.975900 -68.871800 -5.348130 -0.000001 -0.000004 -55.750600 76.946600 4.801010 -24.328900 0.000322 -0.000009 26.573400 2.751650 -84.518400 -22.291500 -0.000108 -0.000004 44.430500 5.678110 -23.252500 -2.192480 -6.469440 -0.000000 -170.230000 -19.330300 -2.911440 39.081100 -0.000007 -0.000012 -0.143579 0.307233 25.048200 40.985400 -0.000006 -0.000013 -5.094350 -1.012330 -64.854000 11.754300 -0.000000 0.000003 -0.000051 -0.000572 -16.599700 -2.192510 6.469440 -0.000001 175.101000 21.687400 176.975000 -39.081100 -0.002282 -0.040193 0.041255 -0.083895 24.335000 -40.985400 0.000008 0.000006 0.867040 3.947750 -64.220300 -11.754300 -0.000006 -0.000006 -0.005948 -0.070361 -19.436700
0.000000 0.000000 0.000000 0.000000 0.000000 -0.000000 -0.659017 91.863300 -2.090800 88.060000 -4.003470 5.190930 15.735700 0.000005 -0.000001 77.094400 84.412300 -73.914700 8.984550 -0.406207 -0.000000 3.210510 -2.619450 6.426990 16.377300 -0.000001 -0.000001 6.791950 0.750799 -4.653890 6.456720 -0.000001 -0.000000 1.086280 1.477510 -4.041250 12.994200 -0.242716 4.980390 -83.341300 -12.698500 -62.028000 5.348090 -0.000007 -0.000001 -47.206800 -57.395800 -76.862300 24.328600 0.000019 0.000005 -9.277210 -7.683620 -50.699200 22.291600 -0.000001 0.000005 14.513400 5.653020 -15.310200 12.994500 -0.242716 -4.980390 91.525700 -3.950890 -68.864600 -5.348130 -0.000001 -0.000004 -55.471800 76.925800 4.508130 -24.328900 0.000322 -0.000009 26.693500 2.763820 -84.522800 -22.291500 -0.000108 -0.000004 44.449900 5.678120 -23.249100 -2.192480 -6.469440 -0.000000 -170.206000 -19.307900 -2.947930 39.081100 -0.000007 -0.000012 -0.145856 0.311606 25.083400 40.985400 -0.000006 -0.000013 -5.087830 -0.971227 -64.840800 11.754300 -0.000000 0.000003 -0.000055 -0.000615 -16.601400 -2.192510 6.469440 -0.000001 175.117000 21.759600 176.988000 -39.081100 -0.002282 -0.040193 0.041666 -0.084861 24.320600 -40.985400 0.000008 0.000006 0.896324 3.965400 -64.237200 -11.754300 -0.000006 -0.000006 -0.005942 -0.070308 -19.434500
0.000000 0.000000 0.000000 0.000000 0.000000 -0.000000 -0.672695 91.875800 -2.135260 88.046000 -3.941880 5.154120 15.735700 0.000005 -0.000001 77.289200 84.394400 -74.138300 8.984550 -0.406207 -0.000000 3.252280 -2.588010 6.369340 16.377300 -0.000001 -0.000001 6.722600 0.742592 -4.602010 6.456720 -0.000001 -0.000000 1.153440 1.451730 -4.051210 12.994200 -0.242716 4.980390 -83.374400 -12.658400 -62.073600 5.348090 -0.000007 -0.000001 -46.838500 -57.073800 -76.187500 24.328600 0.000019 0.000005 -9.425010 -7.664490 -51.219800 22.291600 -0.000001 0.000005 14.443200 5.653390 -15.347200 12.994500 -0.242716 -4.980390 91.510400 -3.907740 -68.848700 -5.348130 -0.000001 -0.000004 -55.485700 76.870400 4.556160 -24.328900 0.000322 -0.000009 26.679500 2.741750 -84.563000 -22.291500 -0.000108 -0.000004 44.361500 5.677870 -23.316900 -2.192480 -6.469440 -0.000000 -170.209000 -19.266400 -2.999460 39.081100 -0.000007 -0.000012 -0.145057 0.310757 25.022700 40.985400 -0.000006 -0.000013 -5.080250 -0.939717 -64.774800 11.754300 -0.000000 0.000003 -0.000048 -0.000547 -16.598800 -2.192510 6.469440 -0.000001 175.167000 21.859000 176.936000 -39.081100 -0.002282 -0.040193 0.042081 -0.085896 24.291100 -40.985400 0.000008 0.000006 0.992513 3.949390 -64.180900 -11.754300 -0.000006 -0.000006 -0.005815 -0.069144 -19.387000
